<?xml version="1.0" encoding="utf-8"?>
<!-- Generator: Adobe Illustrator 23.0.3, SVG Export Plug-In . SVG Version: 6.00 Build 0)  -->
<svg version="1.1" id="Capa_1" xmlns="http://www.w3.org/2000/svg" xmlns:xlink="http://www.w3.org/1999/xlink" x="0px" y="0px"
	 viewBox="0 0 1280 720" style="enable-background:new 0 0 1280 720;" xml:space="preserve">
<style type="text/css">
	.st0{fill:#FFFFFF;}
	.st1{stroke:#000000;stroke-miterlimit:10;}
	.st2{fill:none;stroke:#000000;stroke-miterlimit:10;}
	.st3{fill:none;stroke:#000000;stroke-width:0.9;stroke-miterlimit:10;}
	.st4{fill:#FF0000;stroke:#FF0000;stroke-miterlimit:10;}
</style>
<g>
	<polygon class="st0" points="146.5,330.07 146.5,179.5 305.08,179.5 305.5,330.5 	"/>
	<path d="M304.58,180L305,330l-158-0.43V180H304.58 M305.58,179H146v151.56L306,331L305.58,179L305.58,179z"/>
</g>
<g>
	<g>
		<g>
			<g>
				<path class="st1" d="M293.61,317.67c1.33,2.68-0.62,5.83-3.62,5.83H228.5l-28.52,0.06c-1.09,0-1.83-1.11-1.41-2.11l2.93-6.95
					l2.11-5l0.88-2.11l21.01-49.89l1.67-4.45c0.48-1.28,2.28-1.33,2.82-0.07l1.49,3.48c0.01,0.02,3,7.01,3.3,7.58l8.72,18.46
					c0.13,0.3,0.04,0.3-0.86,0.57l-3.87,1.19c-0.75,0.23-1.56-0.15-1.86-0.88l-6.39-15.8c-0.02-0.05-0.04-0.1-0.06-0.15l-0.53-1.59
					c-0.46-1.39-2.42-1.39-2.89,0l-0.56,1.67l-15.29,39.92l-0.8,2.08l-1.12,2.94c-0.38,1,0.35,2.06,1.42,2.06h67.4
					c1.11,0,1.85-1.16,1.38-2.16l-25.57-54.83l-24.08-47.37c-0.56-1.1-2.13-1.11-2.71-0.01L202.5,257.5l-27,57l-3.8,8.25
					c-0.25,0.54-0.79,0.88-1.38,0.88l-6.67,0.01c-1.13,0-1.87-1.18-1.37-2.19L222.5,199.5l4.67-10.13c0.53-1.16,2.17-1.18,2.74-0.04
					l4.58,9.17L293.61,317.67z"/>
				<path class="st2" d="M244.5,282.5"/>
				<path class="st3" d="M186,306.5"/>
				<path class="st3" d="M189.38,305.91"/>
				<path class="st2" d="M190.5,303.5"/>
				<path class="st2" d="M186.42,305.68"/>
				<path class="st3" d="M189.5,305.5"/>
				<path class="st2" d="M244.5,282.5"/>
				<path class="st2" d="M237.44,284.67"/>
				<path class="st2" d="M233.62,285.85"/>
				<path class="st2" d="M245.35,283.55"/>
				<path class="st2" d="M233.42,285.97"/>
				<g>
					<path class="st2" d="M236.08,300.71"/>
					<path class="st2" d="M228.5,278.5"/>
					<path class="st2" d="M223.5,293.5"/>
					<path class="st2" d="M238.3,306.93"/>
					<path class="st2" d="M236.68,302.39"/>
					<path class="st2" d="M236.2,301.05"/>
					<path class="st2" d="M236.2,301.05"/>
					<path class="st2" d="M238.5,307.5"/>
					<g>
						<path class="st4" d="M280.5,314.5h-72l0.79-2.06l1.12-2.94l0.8-2.08l15.29-39.92l0.56-1.67l1.44-4.33l1.44,4.33l0.56,1.67
							l6.42,15.88l0.52,1.29l-3.82,1.18l-2.12-6.35l-3-9l-3,9l-9.31,27.94l-0.69,2.06h57l-23.78-47.56l-2.22-4.44l-1.52-3.37
							c-0.03-0.08-0.08-0.17-0.12-0.26L228.5,217.5l-18,40l-26,52l-2.22,5l-4.05,9.11l-6.94,0.02l0.39-0.84l3.82-8.29l27-57
							l24.64-47.39l1.36-2.61l1.34,2.64l24.08,47.37l25.57,54.83L280.5,314.5z"/>
					</g>
					<path class="st2" d="M256.72,307.61"/>
					<path class="st2" d="M223.5,293.5"/>
					<path class="st2" d="M238.5,307.5"/>
					<path class="st2" d="M250.5,307.5"/>
					<path class="st2" d="M240.5,307.5"/>
					<path class="st2" d="M238.5,307.5"/>
				</g>
			</g>
		</g>
	</g>
	<g>
		<path class="st1" d="M227.5,281.5l-8,25h48l-33-68l-6-14l-7,16l-39.6,83h-3.4l-0.04-0.02l41.04-83.98l9-21l9,20
			c2.66,5.55,5.1,10.66,7.36,15.37c0.04,0.09,0.09,0.18,0.12,0.26l1.52,3.37l2.22,4.44c22.78,47.56,22.78,47.56,22.78,47.56h-56
			l8-23c5-14,5-14,5-14l4.5,12.6l0.35,0.98l-2.85,0.42l-2-8L227.5,281.5z"/>
	</g>
	<line class="st2" x1="233.5" y1="286.5" x2="233.35" y2="286.08"/>
	<path class="st2" d="M244.98,254.13"/>
	<path class="st2" d="M248.72,261.94"/>
	<path class="st2" d="M223.5,327.5"/>
	<path class="st2" d="M256.5,279.5"/>
	<path class="st2" d="M179.5,332.5"/>
	<path class="st2" d="M228.04,305.12"/>
	<path class="st2" d="M233.5,286.5"/>
	<line class="st2" x1="233.5" y1="286.5" x2="233.35" y2="286.08"/>
	<line class="st2" x1="268" y1="306.5" x2="267.5" y2="306.5"/>
	<path class="st2" d="M233.56,286.07"/>
	<path class="st2" d="M231.5,285.5"/>
	<line class="st2" x1="233.52" y1="285.99" x2="233.35" y2="286.08"/>
</g>
</svg>
