<?xml version="1.0" encoding="utf-8"?>
<!-- Generator: Adobe Illustrator 23.0.3, SVG Export Plug-In . SVG Version: 6.00 Build 0)  -->
<svg version="1.1" id="Capa_1" xmlns="http://www.w3.org/2000/svg" xmlns:xlink="http://www.w3.org/1999/xlink" x="0px" y="0px"
	 viewBox="0 0 1280 720" style="enable-background:new 0 0 1280 720;" xml:space="preserve">
<style type="text/css">
	.st0{fill:none;stroke:#000000;stroke-miterlimit:10;}
	.st1{fill:#3FA9F5;}
	.st2{fill:none;stroke:#000000;stroke-linecap:square;stroke-miterlimit:10;}
</style>
<g>
	<path class="st0" d="M180.5,332.5"/>
</g>
<path class="st0" d="M156.5,299.5"/>
<path class="st0" d="M126.73,211.91"/>
<path d="M186.93,303.5l-1.73,5h75.3l-23-42l-34-57c-10.67,19.33-21.33,38.67-32,58c-7.33,13.67-14.67,27.33-22,41l-5,9h-12l36-60
	l32.67-56.93c1.05-1.84,3.69-1.89,4.81-0.09l35.52,57.02l30.78,55.97c1,1.81-0.31,4.03-2.39,4.03h-98.86
	c-2.15,0-3.56-2.26-2.62-4.19l2.35-4.81l2.43-5l1.95-4l24.36-50l2.12-4.25c0.8-1.59,3.05-1.64,3.92-0.09l2.96,5.33l13.82,25h-9.85
	l-4.52-9.95l-4.45-11.05l-3,10l-12.17,35L186.93,303.5z"/>
<g>
	<polygon class="st1" points="145.35,317 149.94,308.74 171.94,267.74 203.52,210.5 237.07,266.76 259.66,308 185.9,308 
		187.4,303.66 188.8,299.67 200.97,264.66 203.57,256.01 207.49,265.74 211.69,275 209.42,275 203.39,262.08 199.02,277.36 
		190.95,304 254.38,304 219.93,244.25 203.48,216.49 187.06,246.26 148.86,317 	"/>
	<path class="st1" d="M203.53,211.51l33.09,55.47l22.19,40.52H186.6l1.27-3.67l1.4-4l12.18-35.04l2.18-7.27l3.4,8.44l3.88,8.54
		h-1.18l-5.33-11.42l-1.13-2.43l-0.74,2.57l-4,13.98l-6.67,22l-1.21,4l-0.39,1.29h1.35h61.89h1.73l-0.86-1.5l-34.02-59.01l-16-27
		l-0.89-1.5l-0.84,1.53l-16,29.01l-30.78,57l-2.7,5l-4.58,8.48h-2.36l4.18-7.53c3.67-6.84,7.34-13.68,11.01-20.52
		c3.66-6.82,7.33-13.65,10.98-20.47c5.33-9.65,10.65-19.31,15.98-28.97C193.41,229.85,198.47,220.68,203.53,211.51 M203.5,209.5
		c-10.67,19.33-21.33,38.67-32,58c-7.33,13.67-14.67,27.33-22,41l-5,9h4.66l4.86-9l2.7-5l30.78-57l16-29l16,27l34.01,59h-61.89
		l1.21-4l6.67-22l4-14l5.6,12h3.37l-4.52-9.95l-4.45-11.05l-3,10l-12.17,35l-1.4,4l-1.73,5h75.3l-23-42L203.5,209.5L203.5,209.5z"/>
</g>
<path class="st2" d="M149.5,310.5"/>
<line class="st2" x1="247.5" y1="299.5" x2="247.27" y2="299.5"/>
<path class="st2" d="M212.47,275.5"/>
<path class="st2" d="M206,275.5"/>
<path class="st2" d="M210,275.5"/>
<path d="M247.27,299l-28.77-50l-15-27l-14,26l-27.57,51l-2.16,4l-2.7,5l-5.07,9h-2.6c-0.18,0-0.29-0.19-0.2-0.35l4.83-8.65l2.7-5
	l30.78-57l16-29l16,27l34.5,60h-62.38l1.21-5l6.67-22l4-14l5.5,12h-3.5l-2-5l-1,5l-6,24"/>
<path class="st2" d="M209.5,275.5"/>
</svg>
